<svg xmlns="http://www.w3.org/2000/svg" version="1.1" xmlns:xlink="http://www.w3.org/1999/xlink" xmlns:svgjs="http://svgjs.dev/svgjs" width="1000" height="1000" viewBox="0 0 1000 1000"><rect width="1000" height="1000" fill="#fbeaab"></rect><g transform="matrix(0.7,0,0,0.7,150.0000000000001,106.25)"><svg viewBox="0 0 320 360" data-background-color="#fbeaab" preserveAspectRatio="xMidYMid meet" height="1125" width="1000" xmlns="http://www.w3.org/2000/svg" xmlns:xlink="http://www.w3.org/1999/xlink"><g id="tight-bounds" transform="matrix(1,0,0,1,0,0)"><svg viewBox="0 0 320 360" height="360" width="320"><g><svg></svg></g><g><svg viewBox="0 0 320 360" height="360" width="320"><g><path d="M20.961 227.22l3.726 4.658-1.863-6.056c-0.466-2.795-3.726 0.466-1.863 1.398M25.153 224.425c1.397 2.329 2.795 4.658 2.795 6.987 0 3.261 2.795 4.658 5.123 5.589-3.261-3.726-5.124-13.974-7.918-12.576M204.017 26.929c7.918 0 15.371-0.932 23.756 0.931 20.495 5.124 37.729 15.371 49.374 29.811l32.606 52.169c1.397 13.042 4.192 27.482 3.726 43.319 3.261 0 2.795-4.658 6.521-5.59-3.726 9.316-5.59 20.961-6.521 34.469-2.329-7.453 0-18.632 0.466-24.687-3.261 5.124-5.124 1.397-5.124-0.932 0.466-3.726-1.397-3.261-2.795-4.658-5.124-4.658-8.384-9.782-12.11-17.7 2.329-6.055 2.795-14.905-4.658-19.563-2.329-1.397-5.124-3.726-6.521-7.453-1.863-5.124-5.124-11.179-4.193-19.097 0.466-2.329-6.987 5.124-11.179 1.863-18.166-12.576-36.332-27.016-58.224-39.127-11.645 0-20.029-4.192-24.221-9.316-3.726-4.658-0.932-10.713 4.658-11.179 3.261 0 6.987-0.932 9.782 0.932 0.466-1.863 2.329-4.192 4.657-4.192M157.904 16.215l0.932 0.466c4.658 0.932 6.987 7.453 12.11 5.124 0 3.261 0.466 6.521-0.466 8.85-1.397 3.726-5.59 3.726-8.85 3.726-31.208-1.863-49.374 11.179-68.471 22.358-5.124 3.261-10.713 5.59-14.906 9.782-20.029 18.632-41.921 35.866-47.045 70.335l-4.192 38.195c-0.466 4.192-5.124 8.384-4.192 13.508l3.26 22.824c-3.261-3.261-5.124 0.932-4.192 2.795 0.466 1.397 2.329 6.055 5.124 1.863 3.726 6.987 7.453 20.495 12.576 26.55 15.837 18.632 36.332 35.4 53.101 52.169 4.192-0.932 7.453-0.932 8.384-3.727 1.397 2.795-1.397 5.59-3.726 6.056 7.453 4.658 15.837 8.85 27.016 9.781 14.44 0.932 27.948 3.261 40.524 6.522 6.521-1.863 13.042-2.795 20.029-3.261 2.329 0 3.726-3.726 6.521-4.658l0.466-4.658c2.795 4.192 2.329-1.397 0.466-4.192 3.261 2.795 4.192 5.124 5.589 6.987 0-1.397 3.726-6.521 3.727-0.466l0.931-6.055c1.397-0.932 1.863 5.124 3.261 0.931 1.397-4.192 4.192-0.932 6.987-2.329-0.932 1.863-0.466 5.59 2.794 3.261l3.727-3.261c2.329 5.59 6.055 3.261 7.918 2.329 20.495-13.042 40.99-28.413 60.553-43.784l-0.466 6.055 2.329-7.453c2.329 2.329 4.192 0.466 5.124-0.931 2.795-4.658 6.521-9.316 12.577-13.508-7.453 20.029-16.303 35.866-27.482 48.908l-4.658 5.59c0 3.261-0.932 7.453-4.658 7.918-1.863 0.466-5.59-0.932-8.384 1.863-1.397 1.863 3.261 5.59-0.466 2.795-3.261-2.329-6.521 0-10.248 0.932-2.795 0.932 1.863 3.726 2.795 5.589 0.932 1.863 1.863 3.726 1.398 6.056l-5.124-5.59c-6.055 3.261-9.782 9.316-14.906 13.974-2.329 1.863-1.397 5.124-1.397 7.918-3.261 0-6.987-0.932-8.85 0.932-1.397 1.863-0.932 4.658-0.932 7.453-4.658-0.466-5.124-7.453-9.315-6.056-4.192 0.932-8.85 1.397-12.577 3.727 2.795 5.59-4.658 2.329-3.726 3.26-6.987-4.192-13.042-7.453-20.495-4.658-15.837-5.124-35.4-2.795-49.84-0.931 0-2.329 0.466-4.658-0.466-5.124-0.932 2.329-3.726 1.397-3.26 1.397-8.85-6.055-17.7-9.782-27.016-14.905-8.384 0.932-16.303-3.261-18.632-5.59-6.521-6.055-13.974-2.795-20.029-4.192-13.042-3.261-17.7-16.769-19.098-26.084-0.932-4.658-4.658-6.521-6.055-6.056-6.055-19.563-15.371-37.263-22.824-55.429-1.863-4.658-1.397-9.316-1.397-14.44 2.329 0.932 4.658 0.466 4.192-2.794-2.329-15.371-7.918-27.016-13.974-38.195 3.261-15.837 3.726-34.469 11.179-48.443 6.521-12.576 18.632-19.098 27.016-29.811 2.795-3.726 2.795-8.85 5.59-12.11 9.316-9.316 18.632-19.098 28.879-27.482 4.658-3.726 10.247 0 17.234-1.397 2.329-8.384 11.645-15.837 20.495-13.508 3.726 0.932 11.179-8.85 13.508-9.782 3.726-1.397 1.863 3.726 1.863 6.987 8.85-6.987 20.961-10.713 32.14-14.906" fill="#454545" fill-rule="nonzero" stroke="none" stroke-width="1" stroke-linecap="butt" stroke-linejoin="miter" stroke-miterlimit="10" stroke-dasharray="" stroke-dashoffset="0" font-family="none" font-weight="none" font-size="none" text-anchor="none" style="mix-blend-mode: normal" data-fill-palette-color="tertiary"></path></g><g transform="matrix(1,0,0,1,64,142.98711207476634)"><svg viewBox="0 0 192 74.02577585046728" height="74.02577585046728" width="192"><g><svg viewBox="0 0 192 74.02577585046728" height="74.02577585046728" width="192"><g><svg viewBox="0 0 192 74.02577585046728" height="74.02577585046728" width="192"><g><svg viewBox="0 0 192 74.02577585046728" height="74.02577585046728" width="192"><g id="textblocktransform"><svg viewBox="0 0 192 74.02577585046728" height="74.02577585046728" width="192" id="textblock"><g><svg viewBox="0 0 192 48.44859813084112" height="48.44859813084112" width="192"><g transform="matrix(1,0,0,1,0,0)"><svg width="192" viewBox="3.27 -57.76 287.34000000000003 72.51" height="48.44859813084112" data-palette-color="#454545"><path d="M52.15 12.65L52.15 12.65Q52.15 13.09 51.83 13.43 51.51 13.77 51.07 13.99 50.63 14.21 50.17 14.4 49.71 14.6 49.37 14.75L49.37 14.75Q48.83 14.45 48.27 14.36 47.71 14.26 47.27 13.87L47.27 13.87 46.92 13.87Q46.14 13.87 45.7 14.06L45.7 14.06Q45.02 13.82 44.58 13.35 44.14 12.89 43.75 12.38 43.36 11.87 42.97 11.38 42.58 10.89 41.99 10.55L41.99 10.55Q41.11 8.11 40.43 5.62 39.75 3.13 39.4 0.54L39.4 0.54Q39.5 0.29 39.55 0 39.6-0.29 39.6-0.54L39.6-0.54Q39.6-0.73 39.53-0.95 39.45-1.17 39.21-1.22L39.21-1.22Q39.45-1.61 39.53-2.12 39.6-2.64 39.6-3.08L39.6-3.08Q39.6-4.05 39.4-4.69L39.4-4.69Q39.7-4.93 39.65-5.49 39.6-6.05 39.89-6.3L39.89-6.3Q39.65-7.13 39.65-7.91L39.65-7.91Q39.65-8.98 39.92-10.01 40.19-11.04 40.19-12.11L40.19-12.11Q40.19-12.35 40.16-12.6 40.14-12.84 40.09-13.09L40.09-13.09Q40.33-13.87 40.55-14.67 40.77-15.48 40.77-16.31L40.77-16.31Q40.77-16.89 40.58-17.29L40.58-17.29Q41.21-19.53 41.48-21.75 41.75-23.97 41.99-26.27L41.99-26.27Q41.94-26.37 41.89-26.42 41.85-26.46 41.85-26.56L41.85-26.56Q41.85-26.81 42.11-26.95 42.38-27.1 42.33-27.49L42.33-27.49Q41.75-26.9 41.38-26.12 41.02-25.34 40.7-24.56 40.38-23.78 40.01-23.02 39.65-22.27 39.06-21.68L39.06-21.68Q39.01-21.14 38.75-20.65 38.48-20.17 38.48-19.58L38.48-19.58Q38.43-19.58 38.38-19.6 38.33-19.63 38.23-19.63L38.23-19.63Q38.04-19.63 37.96-19.38 37.89-19.14 37.65-19.24L37.65-19.24Q36.52-17.04 35.18-14.94 33.84-12.84 31.69-11.57L31.69-11.57Q31.3-11.72 30.96-11.72L30.96-11.72Q30.32-11.72 29.71-11.35 29.1-10.99 28.91-10.99L28.91-10.99Q28.42-10.99 27.71-11.5 27-12.01 26.27-12.06L26.27-12.06Q25.49-12.6 24.98-13.16 24.46-13.72 23.44-13.82L23.44-13.82Q22.75-14.84 22.09-15.77 21.44-16.7 20.83-17.6 20.21-18.51 19.75-19.53 19.29-20.56 19.04-21.83L19.04-21.83Q19.09-21.92 19.09-22.02L19.09-22.02Q19.09-22.31 18.82-22.27 18.55-22.22 18.55-22.56L18.55-22.56 18.55-22.9Q18.55-23.29 18.43-23.61 18.31-23.93 18.36-24.32L18.36-24.32Q18.02-24.85 17.82-25.44 17.63-26.03 17.14-26.46L17.14-26.46 17.14-26.9Q17.14-27.2 17.11-27.47 17.09-27.73 16.97-27.95 16.85-28.17 16.6-28.22L16.6-28.22Q16.55-29.98 15.89-31.81 15.23-33.64 14.7-35.35L14.7-35.35Q14.31-34.08 14.11-32.79 13.92-31.49 13.92-30.18L13.92-30.18 13.92-29.35Q13.92-28.96 14.01-28.56L14.01-28.56Q13.87-28.32 13.6-28.22 13.33-28.13 13.28-27.83L13.28-27.83Q13.23-27.59 13.26-27.34 13.28-27.1 13.23-26.86L13.23-26.86Q13.13-25.68 12.94-24.61L12.94-24.61Q12.65-23 12.26-21.36 11.87-19.73 11.87-18.02L11.87-18.02Q11.87-17.92 11.89-17.75 11.91-17.58 11.91-17.48L11.91-17.48Q11.13-16.8 11.08-15.77 11.04-14.75 10.84-13.82L10.84-13.82Q10.6-12.45 10.25-11.11 9.91-9.77 9.67-8.35L9.67-8.35Q9.52-7.57 9.42-6.81 9.33-6.05 9.23-5.27L9.23-5.27Q9.18-4.83 8.91-4.54 8.64-4.25 8.54-3.86L8.54-3.86Q8.5-3.52 8.52-3.1 8.54-2.69 8.54-2.34L8.54-2.34Q8.54-1.76 8.45-1.25 8.35-0.73 7.86-0.34L7.86-0.34Q7.96 0.93 8.3 1.83 8.64 2.73 9.08 3.86L9.08 3.86 10.3 3.86 10.3 4.05Q10.3 4.54 10.47 4.93 10.64 5.32 11.18 5.27L11.18 5.27Q11.13 5.47 11.13 5.76L11.13 5.76Q11.13 6.2 11.3 6.57 11.47 6.93 11.57 7.37L11.57 7.37Q10.6 8.98 9.47 9.77 8.35 10.55 6.4 10.55L6.4 10.55 5.62 10.55Q5.37 9.77 5.03 9.03 4.69 8.3 4.37 7.57 4.05 6.84 3.83 6.08 3.61 5.32 3.61 4.49L3.61 4.49Q3.61 4.3 3.66 4.13 3.71 3.96 3.71 3.76L3.71 3.76Q3.71 3.52 3.52 3.47 3.32 3.42 3.32 2.98L3.32 2.98Q3.32 2.64 3.3 2.34 3.27 2.05 3.27 1.71L3.27 1.71Q3.27 0.1 3.52-1.49 3.76-3.08 3.86-4.69L3.86-4.69Q4.1-4.93 4.1-5.32 4.1-5.71 4.35-5.96L4.35-5.96 4.35-6.3Q4.35-7.18 4.54-8.06 4.74-8.94 4.98-9.77 5.22-10.6 5.42-11.47 5.62-12.35 5.62-13.23L5.62-13.23 5.62-14.01Q5.62-14.36 5.93-14.33 6.25-14.31 6.3-14.7L6.3-14.7Q6.4-15.38 6.42-16.04 6.45-16.7 6.54-17.38L6.54-17.38Q6.79-18.7 7.08-20.04 7.37-21.39 7.37-22.75L7.37-22.75 7.37-22.9Q7.37-23.05 7.62-23.51 7.86-23.97 7.86-24.41L7.86-24.41Q7.86-24.76 7.71-25.05L7.71-25.05Q7.76-25 7.91-25L7.91-25Q8.11-25 8.18-25.12 8.25-25.24 8.4-25.34L8.4-25.34Q8.25-25.54 8.25-25.73L8.25-25.73Q8.25-25.98 8.33-26.2 8.4-26.42 8.4-26.66L8.4-26.66Q8.4-27 8.06-27.15L8.06-27.15Q8.64-28.22 8.91-29.44 9.18-30.66 9.3-31.93 9.42-33.2 9.52-34.5 9.62-35.79 9.96-36.96L9.96-36.96Q9.86-37.26 9.84-37.6 9.81-37.94 9.81-38.23L9.81-38.23Q9.81-38.43 9.77-38.65 9.72-38.87 9.81-39.06L9.81-39.06Q9.81-39.16 9.86-39.31L9.86-39.31 9.96-39.6Q10.06-39.94 10.08-40.31 10.11-40.67 10.16-41.06L10.16-41.06Q10.25-42.19 10.23-43.36 10.21-44.53 10.3-45.7L10.3-45.7Q10.16-45.9 10.01-46.02 9.86-46.14 9.81-46.39L9.81-46.39Q10.21-47.07 10.67-47.68 11.13-48.29 11.91-48.63L11.91-48.63Q12.06-48.1 12.7-48.1L12.7-48.1Q12.99-48.1 13.43-48.24 13.87-48.39 14.01-48.63L14.01-48.63Q14.84-48.34 15.7-48.36 16.55-48.39 17.29-47.95L17.29-47.95Q17.43-47.22 17.68-46.44 17.92-45.65 18.36-45.02L18.36-45.02Q18.46-44.38 18.55-43.48 18.65-42.58 18.75-41.63 18.85-40.67 19.04-39.82 19.24-38.96 19.58-38.48L19.58-38.48Q19.63-37.6 19.87-36.72 20.12-35.84 20.41-35.03 20.7-34.23 20.92-33.54 21.14-32.86 21.14-32.42L21.14-32.42Q21.14-32.03 21.02-31.91 20.9-31.79 20.8-31.49L20.8-31.49Q21-30.96 21.34-30.59 21.68-30.22 22.07-29.74L22.07-29.74Q22.8-26.95 23.97-24.32 25.15-21.68 26.81-19.24L26.81-19.24Q27.25-19.19 27.51-18.99 27.78-18.8 28.37-18.9L28.37-18.9 28.37-18.55Q28.37-18.07 28.56-17.87L28.56-17.87Q29-17.58 29.59-17.58L29.59-17.58Q30.22-17.58 30.59-17.94 30.96-18.31 31.3-18.8 31.64-19.29 31.98-19.73 32.32-20.17 32.91-20.31L32.91-20.31 32.91-20.41Q32.91-20.8 33.08-21.07 33.25-21.34 33.25-21.68L33.25-21.68Q33.79-22.07 34.08-22.66 34.38-23.24 34.62-23.85 34.86-24.46 35.18-25 35.5-25.54 36.04-25.88L36.04-25.88Q36.72-27.98 37.7-29.79 38.67-31.59 39.75-33.45L39.75-33.45Q39.75-33.59 39.7-33.76 39.65-33.94 39.65-34.08L39.65-34.08Q39.65-34.13 39.75-34.52L39.75-34.52Q39.99-35.01 40.19-35.45 40.38-35.89 40.53-36.43L40.53-36.43Q41.02-37.94 41.43-39.4 41.85-40.87 42.68-42.19L42.68-42.19 42.68-43.41Q43.55-45.17 43.92-47.12 44.29-49.07 44.82-50.93L44.82-50.93Q44.92-51.46 45.19-52.03 45.46-52.59 45.85-52.83L45.85-52.83Q45.7-53.13 45.7-53.42L45.7-53.42Q45.7-53.81 45.83-54.13 45.95-54.44 46.04-54.79L46.04-54.79Q45.9-55.13 45.9-55.66L45.9-55.66Q45.9-56.35 46.29-56.96 46.68-57.57 47.46-57.76L47.46-57.76Q47.95-57.62 48.29-57.28 48.63-56.93 48.95-56.57 49.27-56.2 49.63-55.98 50-55.76 50.59-55.86L50.59-55.86Q50.98-55.13 51.12-54.32 51.27-53.52 51.27-52.69L51.27-52.69Q51.27-51.56 51.07-50.37 50.88-49.17 50.93-47.95L50.93-47.95Q50.54-47.17 50.37-46.26 50.2-45.36 50.05-44.43 49.9-43.51 49.71-42.63 49.51-41.75 49.02-40.97L49.02-40.97Q48.88-38.77 48.71-36.67 48.54-34.57 48.19-32.47L48.19-32.47 47.75-29.69Q47.66-29.35 47.56-28.93 47.46-28.52 47.46-28.22L47.46-28.22Q47.46-27.93 47.51-27.61 47.56-27.29 47.8-27.15L47.8-27.15Q47.46-26.66 47.31-25.98 47.17-25.29 47.02-24.51L47.02-24.51 46.78-23Q46.68-22.27 46.39-21.68L46.39-21.68 46.39-21.14Q46.39-19.19 45.7-17.14L45.7-17.14 45.7-16.89Q45.7-16.65 45.68-16.48 45.65-16.31 45.65-16.06L45.65-16.06Q45.65-15.72 45.85-15.53L45.85-15.53Q45.46-14.26 45.12-12.92 44.78-11.57 44.63-10.16L44.63-10.16Q44.48-8.25 44.58-6.27 44.68-4.3 44.09-2.44L44.09-2.44Q44.38-1.56 44.48-0.54L44.48-0.54 44.68 1.51Q44.78 2.54 45 3.49 45.21 4.44 45.85 5.08L45.85 5.08Q45.9 5.18 45.9 5.37L45.9 5.37Q45.9 5.76 45.7 5.96L45.7 5.96Q45.8 6.45 46.04 6.79 46.29 7.13 46.53 7.45 46.78 7.76 46.95 8.15 47.12 8.54 47.12 9.13L47.12 9.13Q47.51 9.67 48.34 9.96 49.17 10.25 50.02 10.55 50.88 10.84 51.51 11.3 52.15 11.77 52.15 12.65ZM65.33-6.69L65.33-6.69Q65.09-6.3 64.74-5.98 64.4-5.66 64.11-5.32L64.11-5.32Q63.77-5.18 63.35-5.18 62.94-5.18 62.57-5.2 62.2-5.22 61.89-5.2 61.57-5.18 61.37-4.98L61.37-4.98Q60.98-5.08 60.79-5.35 60.59-5.62 60.1-5.66L60.1-5.66Q59.91-5.71 59.71-5.66L59.71-5.66Q58.98-6.49 58.37-7.42 57.76-8.35 57.22-9.18L57.22-9.18Q57.18-10.99 56.93-12.84L56.93-12.84Q56.88-13.28 56.78-13.72 56.69-14.16 56.64-14.55L56.64-14.55Q56.64-15.04 56.71-15.5 56.78-15.97 56.83-16.36L56.83-16.36Q57.03-17.77 57.27-19.14 57.52-20.51 57.71-21.92L57.71-21.92Q57.91-23.19 57.91-24.58 57.91-25.98 57.47-27.2L57.47-27.2 57.42-27.44Q57.52-27.83 57.64-28.1 57.76-28.37 57.81-28.71L57.81-28.71Q57.91-29.25 57.57-29.49L57.57-29.49Q57.71-29.88 58.05-30 58.4-30.13 58.44-30.57L58.44-30.57Q58.49-30.76 58.44-30.96L58.44-30.96Q58.84-31.1 59.25-31.23 59.67-31.35 60.06-31.25L60.06-31.25Q60.69-31.15 61.18-30.83 61.67-30.52 62.11-30.13L62.11-30.13Q62.89-27.78 62.74-25.17 62.6-22.56 62.25-19.92 61.91-17.29 61.81-14.77 61.72-12.26 62.6-10.11L62.6-10.11 62.69-10.06Q62.94-10.01 63.08-10.23 63.23-10.45 63.47-10.4L63.47-10.4Q63.67-10.3 63.72-10.3L63.72-10.3Q63.91-9.33 64.35-8.45 64.79-7.57 65.33-6.69ZM100.43-22.8L100.43-22.8Q100.24-22.31 100.04-21.88 99.85-21.44 99.75-20.9L99.75-20.9Q99.41-20.65 98.99-20.53 98.58-20.41 98.14-20.29 97.7-20.17 97.33-20 96.97-19.82 96.77-19.48L96.77-19.48Q96.63-18.75 96.63-18.12L96.63-18.12Q96.63-17.29 96.92-16.7L96.92-16.7Q96.77-16.26 96.72-15.77 96.67-15.28 96.67-14.84L96.67-14.84Q96.67-13.23 97.07-11.65 97.46-10.06 97.5-8.45L97.5-8.45Q97.5-8.2 97.46-7.91 97.41-7.62 97.41-7.37L97.41-7.37Q97.41-6.35 98.19-6.01L98.19-6.01Q98.04-5.76 98.04-5.57L98.04-5.57Q98.04-5.18 98.14-4.88 98.24-4.59 98.19-4.25L98.19-4.25Q98.43-3.76 98.68-3.39 98.92-3.03 99.02-2.49L99.02-2.49Q98.68-1.81 98.19-1.25 97.7-0.68 97.5 0.15L97.5 0.15Q97.31 0.1 97.07 0.1L97.07 0.1Q96.72 0.1 96.53 0.24 96.33 0.39 96.21 0.61 96.09 0.83 95.94 1.05 95.8 1.27 95.55 1.37L95.55 1.37 95.41 1.37Q95.16 1.42 94.99 1.34 94.82 1.27 94.67 1.27L94.67 1.27Q94.58 1.27 94.28 1.37L94.28 1.37Q93.89 0.88 93.75 0.22 93.6-0.44 93.6-1.07L93.6-1.07Q93.6-1.76 93.79-2.29L93.79-2.29Q93.26-2.73 93.13-3.61 93.01-4.49 92.87-5.08L92.87-5.08Q92.48-6.88 91.96-8.59 91.45-10.3 91.35-12.11L91.35-12.11Q91.3-12.79 91.3-13.43L91.3-13.43 91.3-15.97Q91.3-16.6 91.35-17.19L91.35-17.19Q91.35-17.63 91.43-18.04 91.5-18.46 91.5-18.9L91.5-18.9Q91.5-19.48 91.11-20.02L91.11-20.02Q87.64-19.87 84.54-18.77 81.44-17.68 78.36-16.16L78.36-16.16Q78.17-15.04 78.12-13.96 78.07-12.89 78.07-11.77L78.07-11.77 78.07-9.62Q78.07-8.4 78.17-7.57L78.17-7.57Q78.41-6.15 79.61-5.4 80.81-4.64 82.03-4.25L82.03-4.25Q81.98-3.52 81.73-3 81.49-2.49 81.12-2.08 80.76-1.66 80.32-1.27 79.88-0.88 79.44-0.39L79.44-0.39Q79.05-0.63 78.66-0.73 78.27-0.83 77.83-0.85 77.39-0.88 76.95-0.93 76.51-0.98 76.07-1.12L76.07-1.12 75-2.59Q74.46-3.32 73.82-4.05L73.82-4.05 73.82-4.49Q73.82-5.81 73.33-7.03 72.85-8.25 72.6-9.52L72.6-9.52Q72.75-9.96 72.8-10.4 72.85-10.84 72.85-11.33L72.85-11.33Q72.85-12.3 72.77-13.23 72.7-14.16 72.8-15.09L72.8-15.09 72.55-15.09Q72.11-15.09 71.63-14.87 71.14-14.65 70.67-14.38 70.21-14.11 69.79-13.89 69.38-13.67 69.09-13.67L69.09-13.67Q68.94-13.67 68.79-13.72 68.65-13.77 68.45-13.77L68.45-13.77Q68.21-13.77 67.87-13.57 67.52-13.38 67.11-13.16 66.69-12.94 66.25-12.74 65.82-12.55 65.38-12.55L65.38-12.55Q64.69-12.55 64.01-13.13L64.01-13.13Q63.91-13.53 63.94-13.87 63.96-14.21 63.96-14.6L63.96-14.6Q63.96-14.99 63.81-15.43L63.81-15.43Q64.16-16.06 64.72-16.43 65.28-16.8 65.89-17.11 66.5-17.43 67.13-17.75 67.77-18.07 68.21-18.6L68.21-18.6 68.5-18.6Q69.18-18.6 69.75-18.9 70.31-19.19 71.04-19.14L71.04-19.14Q71.28-19.24 71.38-19.87L71.38-19.87 71.58-19.82Q72.65-19.82 73.48-20.56L73.48-20.56Q74.02-23.58 74.36-26.66 74.7-29.74 74.7-32.81L74.7-32.81Q74.7-33.11 74.51-33.4L74.51-33.4Q74.41-33.79 74.41-34.13L74.41-34.13 74.41-34.86Q74.41-35.4 74.46-35.99 74.51-36.57 74.7-37.16L74.7-37.16Q75.19-37.45 75.73-37.45L75.73-37.45Q76.36-37.45 76.97-37.28 77.58-37.11 78.17-37.01L78.17-37.01Q78.61-36.57 78.83-36.04 79.05-35.5 79.1-34.94 79.15-34.38 79.12-33.81 79.1-33.25 79.1-32.71L79.1-32.71Q79.1-31.64 79.34-30.62 79.58-29.59 79.58-28.61L79.58-28.61Q79.58-28.37 79.41-28.25 79.24-28.13 79.24-27.59L79.24-27.59Q79.24-27.05 79.34-26.46 79.44-25.88 79.44-25.29L79.44-25.29Q79.44-24.61 79.24-23.88 79.05-23.14 78.9-22.46L78.9-22.46Q81.83-22.71 84.91-23.19 87.98-23.68 90.77-24.76L90.77-24.76Q90.82-24.85 90.82-25.05L90.82-25.05Q90.82-25.34 90.77-25.63 90.72-25.93 90.72-26.27L90.72-26.27Q90.72-26.86 91.11-27.2L91.11-27.2Q90.86-28.56 90.77-29.93 90.67-31.3 90.67-32.67L90.67-32.67 90.67-35.45Q90.67-36.82 90.62-38.18L90.62-38.18Q91.01-38.43 91.45-38.43L91.45-38.43Q91.99-38.43 92.45-38.16 92.91-37.89 93.55-37.89L93.55-37.89Q93.99-37.89 94.28-38.04L94.28-38.04Q94.82-37.55 95.01-36.77 95.21-35.99 95.36-35.16 95.5-34.33 95.67-33.52 95.84-32.71 96.38-32.23L96.38-32.23 96.43-32.08Q96.43-31.88 96.24-31.79 96.04-31.69 96.04-31.4L96.04-31.4 96.04-31.2Q96.24-30.42 96.33-29.59 96.43-28.76 96.5-27.91 96.58-27.05 96.72-26.25 96.87-25.44 97.26-24.76L97.26-24.76Q97.5-24.8 97.9-24.8L97.9-24.8Q98.87-24.8 99.43-24.15 100-23.49 100.43-22.8ZM114.1-6.69L114.1-6.69Q113.86-6.3 113.52-5.98 113.18-5.66 112.88-5.32L112.88-5.32Q112.54-5.18 112.13-5.18 111.71-5.18 111.35-5.2 110.98-5.22 110.66-5.2 110.34-5.18 110.15-4.98L110.15-4.98Q109.76-5.08 109.56-5.35 109.37-5.62 108.88-5.66L108.88-5.66Q108.68-5.71 108.49-5.66L108.49-5.66Q107.76-6.49 107.15-7.42 106.54-8.35 106-9.18L106-9.18Q105.95-10.99 105.71-12.84L105.71-12.84Q105.66-13.28 105.56-13.72 105.46-14.16 105.41-14.55L105.41-14.55Q105.41-15.04 105.49-15.5 105.56-15.97 105.61-16.36L105.61-16.36Q105.8-17.77 106.05-19.14 106.29-20.51 106.49-21.92L106.49-21.92Q106.68-23.19 106.68-24.58 106.68-25.98 106.24-27.2L106.24-27.2 106.19-27.44Q106.29-27.83 106.41-28.1 106.54-28.37 106.58-28.71L106.58-28.71Q106.68-29.25 106.34-29.49L106.34-29.49Q106.49-29.88 106.83-30 107.17-30.13 107.22-30.57L107.22-30.57Q107.27-30.76 107.22-30.96L107.22-30.96Q107.61-31.1 108.02-31.23 108.44-31.35 108.83-31.25L108.83-31.25Q109.47-31.15 109.95-30.83 110.44-30.52 110.88-30.13L110.88-30.13Q111.66-27.78 111.52-25.17 111.37-22.56 111.03-19.92 110.69-17.29 110.59-14.77 110.49-12.26 111.37-10.11L111.37-10.11 111.47-10.06Q111.71-10.01 111.86-10.23 112-10.45 112.25-10.4L112.25-10.4Q112.44-10.3 112.49-10.3L112.49-10.3Q112.69-9.33 113.13-8.45 113.57-7.57 114.1-6.69ZM181.19-8.5L181.19-8.5Q181.09-7.76 180.68-7.37 180.26-6.98 179.73-6.64L179.73-6.64Q179.48-6.69 179.26-6.71 179.04-6.74 178.8-6.74L178.8-6.74Q177.28-6.79 175.94-6.35 174.6-5.91 173.18-5.71L173.18-5.71Q172.7-5.62 172.28-5.64 171.87-5.66 171.43-5.57L171.43-5.57Q169.86-5.32 168.11-5.18 166.35-5.03 164.59-4.81 162.83-4.59 161.15-4.27 159.46-3.96 158-3.37L158-3.37Q157.85-3.47 157.7-3.59 157.56-3.71 157.36-3.71L157.36-3.71Q156.87-3.71 156.44-3.56 156-3.42 155.56-3.47L155.56-3.47Q155.07-3.17 154.51-3.05 153.95-2.93 153.38-2.86 152.82-2.78 152.28-2.64 151.75-2.49 151.26-2.1L151.26-2.1Q150.87-2.29 150.31-2.32 149.75-2.34 149.55-2.69L149.55-2.69Q148.43-2.15 147.18-2 145.94-1.86 144.67-1.9L144.67-1.9Q143.84-1.95 142.76-2.15 141.69-2.34 140.62-2.71 139.54-3.08 138.61-3.59 137.69-4.1 137.2-4.83L137.2-4.83Q136.86-5.32 136.71-5.91 136.56-6.49 136.03-6.79L136.03-6.79Q136.17-7.91 136.37-8.98 136.56-10.06 136.76-11.18L136.76-11.18Q137.73-12.01 138.61-12.94 139.49-13.87 140.27-14.89L140.27-14.89Q141.2-15.33 142.01-15.97 142.81-16.6 143.62-17.26 144.42-17.92 145.23-18.55 146.03-19.19 146.96-19.68L146.96-19.68Q147.11-20.02 147.38-20.24 147.65-20.46 147.94-20.68 148.23-20.9 148.48-21.17 148.72-21.44 148.82-21.83L148.82-21.83Q150.53-22.85 151.8-24.41 153.07-25.98 153.46-27.93L153.46-27.93Q152.63-28.61 151.58-28.83 150.53-29.05 149.4-29.15L149.4-29.15Q148.43-29.2 147.38-29.15 146.33-29.1 145.25-29.2L145.25-29.2Q144.18-28.86 143.03-28.76 141.88-28.66 140.76-28.59 139.64-28.52 138.54-28.3 137.44-28.08 136.42-27.49L136.42-27.49Q136.22-27.49 136.05-27.54 135.88-27.59 135.68-27.59L135.68-27.59Q134.12-27.64 132.75-26.98 131.39-26.32 130.07-25.68L130.07-25.68Q129.97-25.49 129.97-25.39L129.97-25.39Q129.97-25.1 130.09-24.83 130.21-24.56 130.21-24.27L130.21-24.27Q130.17-24.22 130.17-24.17 130.17-24.12 130.12-24.07L130.12-24.07Q130.07-23.83 129.99-23.63 129.92-23.44 129.82-23.19L129.82-23.19Q129.29-21.63 129.24-20.12L129.24-20.12Q129.19-18.85 129.24-17.63 129.29-16.41 129.24-15.14L129.24-15.14Q129.14-13.57 128.75-12.21L128.75-12.21Q128.99-11.04 129.19-9.74 129.38-8.45 129.68-7.18 129.97-5.91 130.39-4.71 130.8-3.52 131.48-2.44L131.48-2.44Q131.44-2.34 131.53-2.29 131.63-2.25 131.73-2.25L131.73-2.25 132.12-2.25Q132.36-2.25 132.31-2.05L132.31-2.05Q132.41-1.9 132.46-1.78 132.51-1.66 132.66-1.56L132.66-1.56Q132.75-1.42 132.66-1.17L132.66-1.17Q132.61-0.2 132.17 0.63 131.73 1.46 131.63 2.44L131.63 2.44Q131.04 2.59 130.56 2.59L130.56 2.59Q129.73 2.54 129.09 2.12 128.46 1.71 127.92 1.12 127.38 0.54 126.89-0.07 126.41-0.68 125.82-1.12L125.82-1.12Q125.48-2.49 125.16-4.15 124.84-5.81 124.11-6.98L124.11-6.98Q124.31-7.42 124.31-8.06L124.31-8.06Q124.36-9.03 124.14-9.99 123.92-10.94 124.01-11.91L124.01-11.91Q124.01-12.45 124.14-12.99 124.26-13.53 124.31-14.06L124.31-14.06Q124.36-14.89 124.14-15.67 123.92-16.46 123.96-17.29L123.96-17.29Q124.01-17.68 124.14-18.04 124.26-18.41 124.5-18.7L124.5-18.7Q124.26-19.29 124.36-19.82L124.36-19.82Q124.4-20.65 124.55-21.39 124.7-22.12 124.75-22.85L124.75-22.85Q124.75-23.24 124.7-23.61 124.65-23.97 124.55-24.32L124.55-24.32 124.11-24.46Q123.82-24.46 123.55-24.32 123.28-24.17 123.09-23.97 122.89-23.78 122.74-23.66 122.6-23.54 122.45-23.54L122.45-23.54Q122.35-23.54 122.23-23.56 122.11-23.58 122.01-23.58L122.01-23.58Q121.91-23.58 121.65-23.39 121.38-23.19 121.01-22.97 120.64-22.75 120.3-22.53 119.96-22.31 119.77-22.27L119.77-22.27Q119.23-22.36 118.91-22.63 118.59-22.9 118.32-23.17 118.06-23.44 117.76-23.66 117.47-23.88 117.03-23.83L117.03-23.83Q116.88-24.12 116.86-24.46 116.84-24.8 116.88-25.15L116.88-25.15 116.88-25.93Q117.23-26.56 117.79-26.98 118.35-27.39 118.98-27.69L118.98-27.69 120.25-28.27Q120.89-28.56 121.43-29L121.43-29 121.87-29Q122.74-28.96 123.4-29.35 124.06-29.74 124.65-30.25 125.23-30.76 125.84-31.3 126.45-31.84 127.19-32.13L127.19-32.13Q127.72-31.88 128.31-31.71 128.9-31.54 129.53-31.49L129.53-31.49Q130.17-31.49 130.85-31.69 131.53-31.88 131.92-32.42L131.92-32.42Q132.17-32.32 132.34-32.3 132.51-32.28 132.75-32.28L132.75-32.28Q133.49-32.23 134.22-32.5 134.95-32.76 135.63-33.15L135.63-33.15Q136.61-33.11 137.56-33.28 138.52-33.45 139.47-33.64 140.42-33.84 141.37-34.01 142.32-34.18 143.3-34.13L143.3-34.13Q144.91-34.08 146.47-34.42 148.04-34.77 149.65-34.67L149.65-34.67Q150.77-34.62 151.87-34.5 152.97-34.38 154.09-34.42L154.09-34.42Q154.73-34.13 155.24-33.91 155.75-33.69 156.53-33.79L156.53-33.79Q158.1-32.47 159.37-30.71L159.37-30.71 159.37-29.88Q159.32-28.76 158.97-27.69 158.63-26.61 158.17-25.56 157.7-24.51 157.17-23.51 156.63-22.51 156.14-21.53L156.14-21.53Q152.97-18.65 149.79-15.82 146.62-12.99 143.25-10.35L143.25-10.35Q143.15-9.86 142.98-9.47 142.81-9.08 142.76-8.64L142.76-8.64Q142.76-8.4 142.81-8.25L142.81-8.25Q143.15-8.15 143.42-7.89 143.69-7.62 143.59-7.18L143.59-7.18 144.03-7.18Q144.28-7.18 144.28-6.98L144.28-6.98 145.06-6.93Q146.91-6.84 148.77-7.03 150.62-7.23 152.5-7.47 154.38-7.71 156.24-7.93 158.1-8.15 159.95-8.2L159.95-8.2Q160.39-8.35 160.88-8.45 161.37-8.54 161.76-8.84L161.76-8.84 161.9-8.84Q162.25-8.84 162.42-8.64 162.59-8.45 162.93-8.4L162.93-8.4Q163.17-8.4 163.44-8.5 163.71-8.59 164-8.64L164-8.64Q164.69-8.84 165.44-8.89 166.2-8.94 166.93-9.03L166.93-9.03Q169.77-9.28 172.55-9.35 175.33-9.42 178.12-10.06L178.12-10.06Q178.36-9.72 178.8-9.59 179.24-9.47 179.73-9.35 180.21-9.23 180.63-9.08 181.04-8.94 181.19-8.5ZM227.28-1.81L227.28-1.81Q227.28-1.32 227.23-1.07L227.23-1.07Q226.99-0.98 226.84-0.81 226.69-0.63 226.35-0.68L226.35-0.68Q226.25 0.05 225.86 0.54 225.47 1.03 225.06 1.44 224.64 1.86 224.25 2.32 223.86 2.78 223.76 3.52L223.76 3.52Q223.03 3.91 222.32 4.57 221.62 5.22 221.08 5.47L221.08 5.47Q220.69 5.66 220.25 5.79 219.81 5.91 219.37 6.1L219.37 6.1Q217.95 6.74 216.46 7.42 214.98 8.11 213.36 8.11L213.36 8.11 213.02 8.11Q212.83 8.3 212.53 8.37 212.24 8.45 211.95 8.5 211.65 8.54 211.36 8.64 211.07 8.74 210.92 8.94L210.92 8.94Q210.39 8.74 209.75 8.74L209.75 8.74 209.41 8.74Q208.58 8.94 207.85 9.03 207.11 9.13 206.28 9.13L206.28 9.13Q204.82 9.13 203.35 8.94 201.89 8.74 200.42 8.59L200.42 8.59Q199.5 7.86 198.91 6.76 198.32 5.66 198.32 4.44L198.32 4.44Q198.32 3.52 198.72 2.71 199.11 1.9 199.74 1.27L199.74 1.27 199.89 1.27Q200.33 1.27 200.79 1.07 201.25 0.88 201.69 0.88L201.69 0.88Q202.18 0.88 202.5 1.27 202.82 1.66 202.99 2.2 203.16 2.73 203.21 3.3 203.26 3.86 203.26 4.2L203.26 4.2Q203.79 4.44 204.4 4.49 205.01 4.54 205.65 4.54L205.65 4.54Q206.28 4.54 207.07 4.47 207.85 4.39 208.65 4.22 209.46 4.05 210.21 3.81 210.97 3.56 211.51 3.17L211.51 3.17Q214.19 2.93 216.24 1.95 218.3 0.98 220.59-0.34L220.59-0.34Q220.69-0.88 221.01-1.2 221.32-1.51 221.32-2.15L221.32-2.15Q221.32-2.25 221.3-2.37 221.27-2.49 221.27-2.59L221.27-2.59Q220.3-3.81 219.25-4.74 218.2-5.66 216.54-5.96L216.54-5.96Q216.34-6.4 215.9-6.62 215.46-6.84 214.98-7.03 214.49-7.23 214.05-7.45 213.61-7.67 213.41-8.2L213.41-8.2Q212.09-8.45 210.7-8.81 209.31-9.18 208.33-10.16L208.33-10.16Q207.55-10.21 206.85-10.47 206.14-10.74 205.45-11.01 204.77-11.28 204.04-11.5 203.31-11.72 202.52-11.72L202.52-11.72Q202.33-12.06 201.99-12.26 201.65-12.45 201.23-12.6 200.82-12.74 200.45-12.92 200.08-13.09 199.89-13.43L199.89-13.43Q199.69-13.38 199.59-13.23 199.5-13.09 199.25-13.09L199.25-13.09 199.06-13.09Q198.96-13.38 198.67-13.5 198.37-13.62 198.32-14.01L198.32-14.01Q197.45-14.06 196.74-14.36 196.03-14.65 195.42-15.01 194.81-15.38 194.17-15.72 193.54-16.06 192.76-16.26L192.76-16.26Q192.27-16.65 191.86-17.11 191.44-17.58 190.81-17.58L190.81-17.58Q190.66-17.58 190.27-17.48L190.27-17.48Q190.17-18.36 189.54-18.73 188.9-19.09 188.17-19.38L188.17-19.38Q187.68-20.65 186.85-21.63 186.02-22.61 185.04-23.44L185.04-23.44Q185.14-23.73 185.14-23.88L185.14-23.88Q185.14-24.37 184.9-24.73 184.65-25.1 184.36-25.34L184.36-25.34Q183.68-27.54 183.68-29.64L183.68-29.64Q183.68-32.57 184.97-35.08 186.26-37.6 189.05-38.87L189.05-38.87Q189.1-39.26 189.32-39.55 189.54-39.84 189.58-40.23L189.58-40.23Q190.02-40.23 190.27-40.43 190.51-40.63 190.73-40.84 190.95-41.06 191.2-41.26 191.44-41.46 191.83-41.5L191.83-41.5Q193.69-43.12 195.79-44.12 197.89-45.12 200.08-46.19L200.08-46.19Q200.52-46.39 200.82-46.92L200.82-46.92 201.11-46.92Q201.6-46.92 201.86-47.14 202.13-47.36 202.67-47.27L202.67-47.27Q202.87-47.56 203.18-47.66 203.5-47.75 203.82-47.83 204.14-47.9 204.43-48.05 204.72-48.19 204.82-48.49L204.82-48.49 205.16-48.49Q205.99-48.49 206.77-48.75 207.55-49.02 208.33-49.37L208.33-49.37 208.68-49.37Q209.65-49.37 210.51-49.73 211.36-50.1 212.34-50.24L212.34-50.24Q212.73-50.34 213.12-50.29 213.51-50.24 213.9-50.24L213.9-50.24Q214.15-50.24 214.49-50.29 214.83-50.34 214.98-50.59L214.98-50.59 215.07-50.59Q215.37-50.59 215.41-50.39 215.46-50.2 215.71-50.2L215.71-50.2Q216.05-50.2 216.39-50.29 216.73-50.39 217.07-50.39L217.07-50.39Q218.54-50.39 219.98-50.1 221.42-49.8 222.84-49.56L222.84-49.56Q222.93-48.97 223.35-48.73 223.76-48.49 224.25-48.29L224.25-48.29 224.25-48.1Q224.25-47.71 224.45-47.46L224.45-47.46Q224.25-46.78 223.76-46.44 223.28-46.09 222.69-45.85L222.69-45.85Q222.93-45.65 222.98-45.31 223.03-44.97 223.03-44.68L223.03-44.68 223.03-44.09 222.79-44.14Q222.01-44.14 222.01-43.41L222.01-43.41Q221.37-43.8 220.61-43.9 219.86-43.99 219.13-43.99L219.13-43.99Q218.15-43.99 217.07-43.92 216-43.85 214.98-43.95L214.98-43.95Q214.58-43.46 214-43.24 213.41-43.02 212.83-43.02L212.83-43.02Q212.19-43.02 211.61-43.29 211.02-43.55 210.78-44.09L210.78-44.09Q210.53-44.19 210.34-44.19L210.34-44.19 209.9-44.19Q209.12-44.19 208.36-44.02 207.6-43.85 206.82-43.63 206.04-43.41 205.28-43.19 204.53-42.97 203.74-42.92L203.74-42.92Q203.45-42.53 202.96-42.38 202.48-42.24 202.18-41.85L202.18-41.85Q201.16-41.65 200.33-41.19 199.5-40.72 198.72-40.19L198.72-40.19 197.2-39.16Q196.47-38.67 195.54-38.33L195.54-38.33Q194.86-37.6 194.27-37.16 193.69-36.72 192.76-36.38L192.76-36.38Q192.17-36.18 192.1-35.79 192.03-35.4 191.68-35.01L191.68-35.01Q191.39-34.67 190.98-34.5 190.56-34.33 190.27-33.94L190.27-33.94Q190.02-33.59 189.9-33.13 189.78-32.67 189.63-32.23 189.49-31.79 189.29-31.37 189.1-30.96 188.71-30.66L188.71-30.66Q188.71-30.47 188.68-30.27 188.66-30.08 188.66-29.93L188.66-29.93Q188.66-29.25 188.83-28.54 189-27.83 189.05-27.15L189.05-27.15Q190.02-25.44 191.34-24.05 192.66-22.66 194.17-21.48 195.69-20.31 197.32-19.29 198.96-18.26 200.57-17.29L200.57-17.29Q201.16-17.33 201.65-17.16 202.13-16.99 202.67-16.94L202.67-16.94Q203.26-16.5 204.04-16.26L204.04-16.26 205.6-15.77Q206.38-15.53 207.11-15.21 207.85-14.89 208.33-14.36L208.33-14.36Q208.58-14.31 208.77-14.23 208.97-14.16 209.21-14.16L209.21-14.16Q209.51-14.16 209.56-14.36L209.56-14.36Q211.75-13.53 213.85-12.52 215.95-11.52 218.3-10.99L218.3-10.99Q219.22-10.21 220.35-9.62 221.47-9.03 222.59-8.42 223.72-7.81 224.74-7.1 225.77-6.4 226.55-5.42L226.55-5.42Q226.65-4.49 226.96-3.64 227.28-2.78 227.28-1.81ZM260.82-31.05L260.82-31.05 260.82-30.86Q260.48-30.76 260.48-30.37L260.48-30.37Q259.94-30.13 259.36-30 258.77-29.88 258.23-29.64L258.23-29.64Q257.7-29.69 257.14-29.71 256.57-29.74 256.04-29.74L256.04-29.74Q254.57-29.74 253.11-29.64 251.64-29.54 250.18-29.64L250.18-29.64Q249.49-29.25 248.69-29.03 247.88-28.81 247.15-28.81L247.15-28.81Q246.56-28.81 246.13-28.96L246.13-28.96Q244.95-28.37 243.56-27.98 242.17-27.59 240.75-27.22 239.34-26.86 238.04-26.39 236.75-25.93 235.77-25.1L235.77-25.1Q235.68-24.41 235.63-23.75 235.58-23.1 235.58-22.46L235.58-22.46Q235.58-21.78 235.65-21.19 235.72-20.61 235.97-20.02L235.97-20.02Q236.21-19.92 236.53-19.87 236.85-19.82 237.09-19.82L237.09-19.82Q237.34-19.82 237.58-19.9 237.82-19.97 237.92-20.21L237.92-20.21Q238.65-20.31 239.39-20.29 240.12-20.26 240.85-20.26L240.85-20.26Q241.58-20.26 242.29-20.31 243-20.36 243.68-20.56L243.68-20.56Q244.46-20.75 245.22-20.8 245.98-20.85 246.71-20.9 247.44-20.95 248.22-21.07 249.01-21.19 249.84-21.58L249.84-21.58Q250.47-21.34 251.13-21.34 251.79-21.34 252.42-21.24L252.42-21.24Q252.77-21 252.99-20.7 253.21-20.41 253.21-20.02L253.21-20.02Q253.21-19.34 252.72-18.65 252.23-17.97 251.94-17.38L251.94-17.38 251.4-17.38Q250.23-17.38 249.13-17.07 248.03-16.75 246.93-16.33 245.83-15.92 244.73-15.6 243.63-15.28 242.46-15.28L242.46-15.28Q242.27-15.28 242.24-15.06 242.22-14.84 242.12-14.75L242.12-14.75Q241.88-14.79 241.39-14.79L241.39-14.79Q240.27-14.79 239.24-14.55 238.21-14.31 237.14-14.31L237.14-14.31Q236.85-14.31 236.55-14.33 236.26-14.36 235.97-14.4L235.97-14.4Q235.72-14.01 235.33-13.89 234.94-13.77 234.6-13.48L234.6-13.48Q234.46-13.04 234.43-12.4 234.41-11.77 234.38-11.11 234.36-10.45 234.26-9.86 234.16-9.28 233.87-8.94L233.87-8.94Q233.92-8.69 234.26-8.76 234.6-8.84 234.6-8.45L234.6-8.45Q234.6-8.01 234.5-7.52 234.41-7.03 234.41-6.54L234.41-6.54Q234.41-5.62 234.63-4.52 234.85-3.42 235.31-2.49 235.77-1.56 236.55-0.95 237.34-0.34 238.51-0.34L238.51-0.34Q239.29-0.34 239.97-0.63 240.66-0.93 241.1-1.61L241.1-1.61 241.34-1.66Q241.54-1.66 241.71-1.61 241.88-1.56 242.07-1.56L242.07-1.56Q242.37-1.56 242.83-1.93 243.29-2.29 243.85-2.78 244.42-3.27 245-3.74 245.59-4.2 246.13-4.39L246.13-4.39Q246.47-5.08 246.78-5.76 247.1-6.45 247.74-6.84L247.74-6.84 247.74-8.25Q248.22-8.79 248.79-9.23 249.35-9.67 249.64-10.35L249.64-10.35Q249.88-10.25 250.1-10.21 250.32-10.16 250.57-10.16L250.57-10.16Q250.81-10.16 251.08-10.21 251.35-10.25 251.59-10.35L251.59-10.35Q251.98-9.81 252.2-9.16 252.42-8.5 252.77-7.91L252.77-7.91Q252.33-7.03 251.74-5.81 251.15-4.59 250.47-3.37 249.79-2.15 249.03-1.05 248.27 0.05 247.54 0.63L247.54 0.63Q247.39 0.78 246.91 0.98L246.91 0.98Q246.37 1.37 245.93 1.73 245.49 2.1 245.1 2.59L245.1 2.59Q243.68 3.03 242.39 3.76 241.1 4.49 239.83 5.18L239.83 5.18Q239.24 5.03 238.56 5.03L238.56 5.03Q237.97 5.03 237.38 5.1 236.8 5.18 236.12 5.18L236.12 5.18Q235.92 4.93 235.55 4.86 235.19 4.79 235.29 4.35L235.29 4.35Q233.63 4.25 232.6 3.44 231.57 2.64 230.87 1.46 230.16 0.29 229.72-1.07 229.28-2.44 228.79-3.71L228.79-3.71 228.79-3.86Q228.79-4.1 228.99-4.15 229.18-4.2 229.18-4.44L229.18-4.44Q229.18-4.54 229.13-4.59L229.13-4.59Q228.99-5.13 228.89-5.52 228.79-5.91 228.79-6.45L228.79-6.45Q228.79-7.23 228.89-7.98 228.99-8.74 228.99-9.52L228.99-9.52Q228.99-10.3 228.79-10.89L228.79-10.89Q228.99-11.13 229.11-11.55 229.23-11.96 229.28-12.4 229.33-12.84 229.35-13.28 229.38-13.72 229.47-14.06L229.47-14.06Q229.28-14.6 229.13-15.01 228.99-15.43 228.99-16.02L228.99-16.02 228.99-16.36Q229.47-17.19 229.82-18.07 230.16-18.95 230.55-19.87L230.55-19.87 230.55-20.02Q230.55-21.44 230.45-22.85 230.35-24.27 230.35-25.68L230.35-25.68 230.35-26.61Q230.35-27.1 230.4-27.54L230.4-27.54Q230.79-27.73 230.99-28.08 231.18-28.42 231.57-28.61L231.57-28.61 233.19-28.61 233.48-29.1Q233.63-29.35 233.67-29.64L233.67-29.64Q234.21-29.79 234.72-30.05 235.24-30.32 235.68-30.62L235.68-30.62Q236.36-31.01 236.92-31.32 237.48-31.64 238.04-31.86 238.61-32.08 239.24-32.23 239.88-32.37 240.71-32.47L240.71-32.47Q241.1-32.47 241.22-32.62 241.34-32.76 241.58-32.96L241.58-32.96Q242.17-32.86 242.76-32.79 243.34-32.71 243.93-32.71L243.93-32.71Q245.1-32.71 246.13-33.15L246.13-33.15Q247.59-33.15 249.03-33.2 250.47-33.25 251.94-33.25L251.94-33.25Q253.21-33.25 254.47-33.15 255.74-33.06 256.96-32.81L256.96-32.81Q257.4-32.96 257.94-32.96L257.94-32.96Q258.53-32.96 259.14-32.84 259.75-32.71 260.33-32.81L260.33-32.81Q260.38-32.28 260.6-31.91 260.82-31.54 260.82-31.05ZM290.61-32.08L290.61-32.08Q290.51-31.49 290.34-31.08 290.17-30.66 290.26-29.98L290.26-29.98Q289.77-29.93 289.51-29.66 289.24-29.39 289.07-29.05 288.9-28.71 288.73-28.34 288.55-27.98 288.31-27.69L288.31-27.69Q288.7-25.93 288.75-24.12 288.8-22.31 288.99-20.56L288.99-20.56Q289.24-18.31 289.75-16.14 290.26-13.96 290.26-11.72L290.26-11.72Q290.26-11.04 290.24-10.45 290.21-9.86 290.21-9.23L290.21-9.23Q290.21-8.84 290.24-8.42 290.26-8.01 290.26-7.62L290.26-7.62Q290.26-6.2 289.9-4.79 289.53-3.37 289.34-1.95L289.34-1.95Q288.75-1.42 288.33-0.78 287.92-0.15 287.48 0.39 287.04 0.93 286.45 1.34 285.87 1.76 284.99 1.9L284.99 1.9Q284.84 2.39 284.43 2.64 284.01 2.88 283.72 3.32L283.72 3.32 283.62 3.32Q282.4 3.32 281.52 2.98 280.64 2.64 279.89 2.2 279.13 1.76 278.35 1.27 277.57 0.78 276.54 0.49L276.54 0.49Q275.18-0.63 274.05-1.98 272.93-3.32 271.51-4.39L271.51-4.39Q271.17-5.37 270.61-6.01 270.05-6.64 269.51-7.47L269.51-7.47Q269.27-7.81 269.15-8.11 269.02-8.4 268.83-8.79L268.83-8.79Q268.68-9.18 268.36-9.33 268.05-9.47 267.8-9.67L267.8-9.67Q267.41-11.18 266.68-12.45 265.95-13.72 264.97-14.89L264.97-14.89Q264.68-14.36 264.51-13.75 264.34-13.13 264.19-12.52 264.04-11.91 263.82-11.3 263.6-10.69 263.26-10.21L263.26-10.21 263.26-10.06Q263.26-9.81 263.46-9.77 263.65-9.72 263.65-9.47L263.65-9.47Q263.65-9.42 263.63-9.38 263.6-9.33 263.6-9.28L263.6-9.28Q263.36-9.08 263.24-8.79 263.11-8.5 262.72-8.45L262.72-8.45Q262.77-8.2 262.77-7.96L262.77-7.96 262.77-7.52Q262.77-6.1 262.46-4.69 262.14-3.27 262.14-1.81L262.14-1.81 262.14-1.17Q262.14-0.83 262.19-0.54L262.19-0.54Q262.28-0.24 262.48 0.05 262.68 0.34 262.68 0.59L262.68 0.59Q262.68 0.93 262.38 1.22L262.38 1.22Q262.72 1.46 263.16 1.76 263.6 2.05 263.97 2.42 264.34 2.78 264.58 3.2 264.82 3.61 264.82 4.1L264.82 4.1Q264.82 4.93 264.29 5.27 263.75 5.62 262.99 5.81 262.24 6.01 261.43 6.18 260.62 6.35 260.09 6.79L260.09 6.79 259.94 6.79Q259.36 6.79 259.06 6.45 258.77 6.1 258.18 6.1L258.18 6.1Q257.26 4.59 256.91 2.71 256.57 0.83 256.57-0.88L256.57-0.88Q256.57-2.98 256.94-5.08 257.3-7.18 257.82-9.23 258.33-11.28 258.94-13.31 259.55-15.33 260.09-17.38L260.09-17.38 260.14-17.53Q260.14-17.77 260.01-17.87 259.89-17.97 259.89-18.16L259.89-18.16Q259.89-18.26 259.94-18.26L259.94-18.26Q260.09-18.75 260.26-19.19 260.43-19.63 260.53-20.17L260.53-20.17Q260.82-21.53 260.94-22.97 261.06-24.41 261.09-25.83 261.11-27.25 261.19-28.69 261.26-30.13 261.5-31.54L261.5-31.54Q261.89-31.93 262.24-32.37 262.58-32.81 263.11-33.15L263.11-33.15Q264.09-33.11 265.07-32.86 266.04-32.62 266.92-32.08L266.92-32.08Q267.51-29.98 267.73-27.88 267.95-25.78 268.49-23.68L268.49-23.68 268.49-23.54Q268.49-23.29 268.75-23.32 269.02-23.34 269.17-23.14L269.17-23.14Q269.07-23 269.05-22.8 269.02-22.61 269.02-22.41L269.02-22.41 269.02-21.58Q269.12-21.19 269.27-20.75 269.41-20.31 269.9-20.21L269.9-20.21Q270.15-18.65 270.63-17.33 271.12-16.02 271.76-14.79 272.39-13.57 273.12-12.38 273.86-11.18 274.64-9.86L274.64-9.86Q275.86-8.94 276.74-7.74 277.62-6.54 278.52-5.44 279.42-4.35 280.57-3.52 281.72-2.69 283.57-2.49L283.57-2.49Q283.82-2.69 283.92-3.03L283.92-3.03 284.16-3.71Q284.31-4.05 284.48-4.32 284.65-4.59 284.99-4.74L284.99-4.74Q285.09-6.1 285.21-7.52 285.33-8.94 285.82-10.21L285.82-10.21Q285.58-10.64 285.58-11.28L285.58-11.28Q285.58-11.77 285.65-12.21 285.72-12.65 285.72-13.09L285.72-13.09Q285.72-14.01 285.33-14.6L285.33-14.6Q285.33-14.94 285.38-15.31 285.43-15.67 285.67-16.02L285.67-16.02Q285.28-16.99 285.06-18.07 284.84-19.14 284.84-20.26L284.84-20.26Q284.84-20.9 284.99-21.58L284.99-21.58Q284.7-22.31 284.6-23.29L284.6-23.29 284.4-25.29Q284.31-26.32 284.11-27.2 283.92-28.08 283.38-28.61L283.38-28.61Q283.67-29.05 283.67-29.64L283.67-29.64Q283.67-30.62 283.38-31.49 283.09-32.37 283.09-33.35L283.09-33.35Q283.09-34.03 283.38-34.72L283.38-34.72Q284.45-34.67 285.5-34.5 286.55-34.33 287.58-34.33L287.58-34.33Q287.87-33.94 288.26-33.69 288.65-33.45 289.09-33.23 289.53-33.01 289.95-32.76 290.36-32.52 290.61-32.08Z" opacity="1" transform="matrix(1,0,0,1,0,0)" fill="#454545" class="undefined-text-0" data-fill-palette-color="primary" id="text-0"></path></svg></g></svg></g><g transform="matrix(1,0,0,1,0,55.51841136448598)"><svg viewBox="0 0 192 18.50736448598131" height="18.50736448598131" width="192"><g transform="matrix(1,0,0,1,0,0)"><svg width="192" viewBox="0.9 -35.3 466.84000000000003 45" height="18.50736448598131" data-palette-color="#454545"><path d="M14.45 0L7.4 0 0.9-32.7 6.85-32.7 9.7-16.2Q10.1-13.55 10.5-10.95 10.9-8.35 11.3-5.75L11.3-5.75 11.5-5.75Q12.05-8.35 12.58-10.98 13.1-13.6 13.65-16.2L13.65-16.2 17.65-32.7 22.7-32.7 26.7-16.2Q27.25-13.65 27.8-11.03 28.35-8.4 28.9-5.75L28.9-5.75 29.1-5.75Q29.5-8.4 29.88-11 30.25-13.6 30.65-16.2L30.65-16.2 33.5-32.7 39.05-32.7 32.8 0 25.6 0 21.55-17.2Q21.15-19.1 20.78-20.98 20.4-22.85 20.1-24.75L20.1-24.75 19.9-24.75Q19.55-22.85 19.18-20.98 18.8-19.1 18.4-17.2L18.4-17.2 14.45 0ZM66.2 0.6L66.2 0.6Q63.65 0.6 61.45-0.28 59.25-1.15 57.6-2.8 55.95-4.45 55.02-6.83 54.1-9.2 54.1-12.25L54.1-12.25Q54.1-15.25 55.05-17.65 56-20.05 57.57-21.7 59.15-23.35 61.2-24.25 63.25-25.15 65.4-25.15L65.4-25.15Q67.9-25.15 69.8-24.3 71.7-23.45 72.97-21.9 74.25-20.35 74.9-18.2 75.55-16.05 75.55-13.5L75.55-13.5Q75.55-12.65 75.47-11.9 75.4-11.15 75.3-10.7L75.3-10.7 59.7-10.7Q60.1-7.4 62.02-5.63 63.95-3.85 66.95-3.85L66.95-3.85Q68.55-3.85 69.92-4.33 71.3-4.8 72.65-5.65L72.65-5.65 74.6-2.05Q72.85-0.9 70.7-0.15 68.55 0.6 66.2 0.6ZM59.65-14.6L59.65-14.6 70.55-14.6Q70.55-17.45 69.32-19.07 68.1-20.7 65.55-20.7L65.55-20.7Q63.35-20.7 61.7-19.15 60.05-17.6 59.65-14.6ZM104.99 0.6L104.99 0.6Q103.29 0.6 101.57-0.23 99.84-1.05 98.29-2.6L98.29-2.6 98.14-2.6 97.64 0 93.09 0 93.09-35.3 98.84-35.3 98.84-26.2 98.69-22.1Q100.24-23.45 102.07-24.3 103.89-25.15 105.79-25.15L105.79-25.15Q108.09-25.15 109.89-24.28 111.69-23.4 112.94-21.78 114.19-20.15 114.84-17.85 115.49-15.55 115.49-12.7L115.49-12.7Q115.49-9.55 114.62-7.08 113.74-4.6 112.29-2.9 110.84-1.2 108.94-0.3 107.04 0.6 104.99 0.6ZM103.79-4.15L103.79-4.15Q106.24-4.15 107.89-6.28 109.54-8.4 109.54-12.6L109.54-12.6Q109.54-16.3 108.29-18.35 107.04-20.4 104.24-20.4L104.24-20.4Q101.64-20.4 98.84-17.65L98.84-17.65 98.84-6.2Q100.14-5.05 101.42-4.6 102.69-4.15 103.79-4.15ZM164.88 0L155.83 0 155.83-32.7 164.58-32.7Q172.08-32.7 176.28-28.65 180.48-24.6 180.48-16.5L180.48-16.5Q180.48-12.45 179.41-9.35 178.33-6.25 176.31-4.17 174.28-2.1 171.41-1.05 168.53 0 164.88 0L164.88 0ZM161.63-28L161.63-4.7 164.18-4.7Q169.18-4.7 171.86-7.58 174.53-10.45 174.53-16.5L174.53-16.5Q174.53-22.5 171.83-25.25 169.13-28 164.18-28L164.18-28 161.63-28ZM209.13 0.6L209.13 0.6Q206.58 0.6 204.38-0.28 202.18-1.15 200.53-2.8 198.88-4.45 197.95-6.83 197.03-9.2 197.03-12.25L197.03-12.25Q197.03-15.25 197.98-17.65 198.93-20.05 200.5-21.7 202.08-23.35 204.13-24.25 206.18-25.15 208.33-25.15L208.33-25.15Q210.83-25.15 212.73-24.3 214.63-23.45 215.9-21.9 217.18-20.35 217.83-18.2 218.48-16.05 218.48-13.5L218.48-13.5Q218.48-12.65 218.4-11.9 218.33-11.15 218.23-10.7L218.23-10.7 202.63-10.7Q203.03-7.4 204.95-5.63 206.88-3.85 209.88-3.85L209.88-3.85Q211.48-3.85 212.85-4.33 214.23-4.8 215.58-5.65L215.58-5.65 217.53-2.05Q215.78-0.9 213.63-0.15 211.48 0.6 209.13 0.6ZM202.58-14.6L202.58-14.6 213.48-14.6Q213.48-17.45 212.25-19.07 211.03-20.7 208.48-20.7L208.48-20.7Q206.28-20.7 204.63-19.15 202.98-17.6 202.58-14.6ZM248.17 0L241.52 0 232.97-24.55 238.82-24.55 242.72-11.8Q243.22-10 243.75-8.15 244.27-6.3 244.77-4.4L244.77-4.4 244.97-4.4Q245.52-6.3 246.02-8.15 246.52-10 247.07-11.8L247.07-11.8 250.97-24.55 256.52-24.55 248.17 0ZM283.02 0.6L283.02 0.6Q280.47 0.6 278.27-0.28 276.07-1.15 274.42-2.8 272.77-4.45 271.84-6.83 270.92-9.2 270.92-12.25L270.92-12.25Q270.92-15.25 271.87-17.65 272.82-20.05 274.39-21.7 275.97-23.35 278.02-24.25 280.07-25.15 282.22-25.15L282.22-25.15Q284.72-25.15 286.62-24.3 288.52-23.45 289.79-21.9 291.07-20.35 291.72-18.2 292.37-16.05 292.37-13.5L292.37-13.5Q292.37-12.65 292.29-11.9 292.22-11.15 292.12-10.7L292.12-10.7 276.52-10.7Q276.92-7.4 278.84-5.63 280.77-3.85 283.77-3.85L283.77-3.85Q285.37-3.85 286.74-4.33 288.12-4.8 289.47-5.65L289.47-5.65 291.42-2.05Q289.67-0.9 287.52-0.15 285.37 0.6 283.02 0.6ZM276.47-14.6L276.47-14.6 287.37-14.6Q287.37-17.45 286.14-19.07 284.92-20.7 282.37-20.7L282.37-20.7Q280.17-20.7 278.52-19.15 276.87-17.6 276.47-14.6ZM315.51 0.6L315.51 0.6Q312.41 0.6 311.16-1.25 309.91-3.1 309.91-6.3L309.91-6.3 309.91-35.3 315.66-35.3 315.66-6Q315.66-4.95 316.06-4.53 316.46-4.1 316.91-4.1L316.91-4.1Q317.11-4.1 317.29-4.1 317.46-4.1 317.81-4.2L317.81-4.2 318.56 0.1Q317.41 0.6 315.51 0.6ZM345.56 0.6L345.56 0.6Q343.26 0.6 341.16-0.25 339.06-1.1 337.43-2.75 335.81-4.4 334.86-6.8 333.91-9.2 333.91-12.25L333.91-12.25Q333.91-15.3 334.86-17.7 335.81-20.1 337.43-21.75 339.06-23.4 341.16-24.28 343.26-25.15 345.56-25.15L345.56-25.15Q347.86-25.15 349.98-24.28 352.11-23.4 353.71-21.75 355.31-20.1 356.28-17.7 357.26-15.3 357.26-12.25L357.26-12.25Q357.26-9.2 356.28-6.8 355.31-4.4 353.71-2.75 352.11-1.1 349.98-0.25 347.86 0.6 345.56 0.6ZM345.56-4.1L345.56-4.1Q348.26-4.1 349.81-6.33 351.36-8.55 351.36-12.25L351.36-12.25Q351.36-16 349.81-18.23 348.26-20.45 345.56-20.45L345.56-20.45Q342.86-20.45 341.33-18.23 339.81-16 339.81-12.25L339.81-12.25Q339.81-8.55 341.33-6.33 342.86-4.1 345.56-4.1ZM380.75 9.7L375 9.7 375-24.55 379.75-24.55 380.15-21.95 380.35-21.95Q381.9-23.25 383.8-24.2 385.7-25.15 387.75-25.15L387.75-25.15Q390.05-25.15 391.83-24.28 393.6-23.4 394.85-21.75 396.1-20.1 396.75-17.8 397.4-15.5 397.4-12.65L397.4-12.65Q397.4-9.5 396.53-7.03 395.65-4.55 394.2-2.88 392.75-1.2 390.85-0.3 388.95 0.6 386.9 0.6L386.9 0.6Q385.3 0.6 383.7-0.1 382.1-0.8 380.6-2.1L380.6-2.1 380.75 2 380.75 9.7ZM385.7-4.15L385.7-4.15Q388.15-4.15 389.8-6.28 391.45-8.4 391.45-12.6L391.45-12.6Q391.45-16.3 390.2-18.35 388.95-20.4 386.15-20.4L386.15-20.4Q383.55-20.4 380.75-17.65L380.75-17.65 380.75-6.2Q382.1-5.05 383.35-4.6 384.6-4.15 385.7-4.15ZM425.75 0.6L425.75 0.6Q423.2 0.6 421-0.28 418.8-1.15 417.15-2.8 415.5-4.45 414.57-6.83 413.65-9.2 413.65-12.25L413.65-12.25Q413.65-15.25 414.6-17.65 415.55-20.05 417.12-21.7 418.7-23.35 420.75-24.25 422.8-25.15 424.95-25.15L424.95-25.15Q427.45-25.15 429.35-24.3 431.25-23.45 432.52-21.9 433.8-20.35 434.45-18.2 435.1-16.05 435.1-13.5L435.1-13.5Q435.1-12.65 435.02-11.9 434.95-11.15 434.85-10.7L434.85-10.7 419.25-10.7Q419.65-7.4 421.57-5.63 423.5-3.85 426.5-3.85L426.5-3.85Q428.1-3.85 429.47-4.33 430.85-4.8 432.2-5.65L432.2-5.65 434.15-2.05Q432.4-0.9 430.25-0.15 428.1 0.6 425.75 0.6ZM419.2-14.6L419.2-14.6 430.1-14.6Q430.1-17.45 428.87-19.07 427.65-20.7 425.1-20.7L425.1-20.7Q422.9-20.7 421.25-19.15 419.6-17.6 419.2-14.6ZM458.39 0L452.64 0 452.64-24.55 457.39-24.55 457.79-20.2 457.99-20.2Q459.29-22.6 461.14-23.88 462.99-25.15 464.94-25.15L464.94-25.15Q466.69-25.15 467.74-24.65L467.74-24.65 466.74-19.65Q466.09-19.85 465.54-19.95 464.99-20.05 464.19-20.05L464.19-20.05Q462.74-20.05 461.14-18.93 459.54-17.8 458.39-15L458.39-15 458.39 0Z" opacity="1" transform="matrix(1,0,0,1,0,0)" fill="#454545" class="undefined-text-1" data-fill-palette-color="secondary" id="text-1"></path></svg></g></svg></g></svg></g></svg></g><g></g></svg></g></svg></g></svg></g></svg></g><defs></defs></svg><rect width="320" height="360" fill="none" stroke="none" visibility="hidden"></rect></g></svg></g></svg>