<svg xmlns="http://www.w3.org/2000/svg" version="1.1" xmlns:xlink="http://www.w3.org/1999/xlink" xmlns:svgjs="http://svgjs.dev/svgjs" width="1000" height="1000" viewBox="0 0 1000 1000"><rect width="1000" height="1000" fill="#000000"></rect><g transform="matrix(0.7,0,0,0.7,150.0000000000001,106.25)"><svg viewBox="0 0 320 360" data-background-color="#fce44d" preserveAspectRatio="xMidYMid meet" height="1125" width="1000" xmlns="http://www.w3.org/2000/svg" xmlns:xlink="http://www.w3.org/1999/xlink"><g id="tight-bounds" transform="matrix(1,0,0,1,0,0)"><svg viewBox="0 0 320 360" height="360" width="320"><g><svg></svg></g><g><svg viewBox="0 0 320 360" height="360" width="320"><g><path xmlns="http://www.w3.org/2000/svg" d="M20.961 227.22l3.726 4.658-1.863-6.056c-0.466-2.795-3.726 0.466-1.863 1.398M25.153 224.425c1.397 2.329 2.795 4.658 2.795 6.987 0 3.261 2.795 4.658 5.123 5.589-3.261-3.726-5.124-13.974-7.918-12.576M204.017 26.929c7.918 0 15.371-0.932 23.756 0.931 20.495 5.124 37.729 15.371 49.374 29.811l32.606 52.169c1.397 13.042 4.192 27.482 3.726 43.319 3.261 0 2.795-4.658 6.521-5.59-3.726 9.316-5.59 20.961-6.521 34.469-2.329-7.453 0-18.632 0.466-24.687-3.261 5.124-5.124 1.397-5.124-0.932 0.466-3.726-1.397-3.261-2.795-4.658-5.124-4.658-8.384-9.782-12.11-17.7 2.329-6.055 2.795-14.905-4.658-19.563-2.329-1.397-5.124-3.726-6.521-7.453-1.863-5.124-5.124-11.179-4.193-19.097 0.466-2.329-6.987 5.124-11.179 1.863-18.166-12.576-36.332-27.016-58.224-39.127-11.645 0-20.029-4.192-24.221-9.316-3.726-4.658-0.932-10.713 4.658-11.179 3.261 0 6.987-0.932 9.782 0.932 0.466-1.863 2.329-4.192 4.657-4.192M157.904 16.215l0.932 0.466c4.658 0.932 6.987 7.453 12.11 5.124 0 3.261 0.466 6.521-0.466 8.85-1.397 3.726-5.59 3.726-8.85 3.726-31.208-1.863-49.374 11.179-68.471 22.358-5.124 3.261-10.713 5.59-14.906 9.782-20.029 18.632-41.921 35.866-47.045 70.335l-4.192 38.195c-0.466 4.192-5.124 8.384-4.192 13.508l3.26 22.824c-3.261-3.261-5.124 0.932-4.192 2.795 0.466 1.397 2.329 6.055 5.124 1.863 3.726 6.987 7.453 20.495 12.576 26.55 15.837 18.632 36.332 35.4 53.101 52.169 4.192-0.932 7.453-0.932 8.384-3.727 1.397 2.795-1.397 5.59-3.726 6.056 7.453 4.658 15.837 8.85 27.016 9.781 14.44 0.932 27.948 3.261 40.524 6.522 6.521-1.863 13.042-2.795 20.029-3.261 2.329 0 3.726-3.726 6.521-4.658l0.466-4.658c2.795 4.192 2.329-1.397 0.466-4.192 3.261 2.795 4.192 5.124 5.589 6.987 0-1.397 3.726-6.521 3.727-0.466l0.931-6.055c1.397-0.932 1.863 5.124 3.261 0.931 1.397-4.192 4.192-0.932 6.987-2.329-0.932 1.863-0.466 5.59 2.794 3.261l3.727-3.261c2.329 5.59 6.055 3.261 7.918 2.329 20.495-13.042 40.99-28.413 60.553-43.784l-0.466 6.055 2.329-7.453c2.329 2.329 4.192 0.466 5.124-0.931 2.795-4.658 6.521-9.316 12.577-13.508-7.453 20.029-16.303 35.866-27.482 48.908l-4.658 5.59c0 3.261-0.932 7.453-4.658 7.918-1.863 0.466-5.59-0.932-8.384 1.863-1.397 1.863 3.261 5.59-0.466 2.795-3.261-2.329-6.521 0-10.248 0.932-2.795 0.932 1.863 3.726 2.795 5.589 0.932 1.863 1.863 3.726 1.398 6.056l-5.124-5.59c-6.055 3.261-9.782 9.316-14.906 13.974-2.329 1.863-1.397 5.124-1.397 7.918-3.261 0-6.987-0.932-8.85 0.932-1.397 1.863-0.932 4.658-0.932 7.453-4.658-0.466-5.124-7.453-9.315-6.056-4.192 0.932-8.85 1.397-12.577 3.727 2.795 5.59-4.658 2.329-3.726 3.26-6.987-4.192-13.042-7.453-20.495-4.658-15.837-5.124-35.4-2.795-49.84-0.931 0-2.329 0.466-4.658-0.466-5.124-0.932 2.329-3.726 1.397-3.26 1.397-8.85-6.055-17.7-9.782-27.016-14.905-8.384 0.932-16.303-3.261-18.632-5.59-6.521-6.055-13.974-2.795-20.029-4.192-13.042-3.261-17.7-16.769-19.098-26.084-0.932-4.658-4.658-6.521-6.055-6.056-6.055-19.563-15.371-37.263-22.824-55.429-1.863-4.658-1.397-9.316-1.397-14.44 2.329 0.932 4.658 0.466 4.192-2.794-2.329-15.371-7.918-27.016-13.974-38.195 3.261-15.837 3.726-34.469 11.179-48.443 6.521-12.576 18.632-19.098 27.016-29.811 2.795-3.726 2.795-8.85 5.59-12.11 9.316-9.316 18.632-19.098 28.879-27.482 4.658-3.726 10.247 0 17.234-1.397 2.329-8.384 11.645-15.837 20.495-13.508 3.726 0.932 11.179-8.85 13.508-9.782 3.726-1.397 1.863 3.726 1.863 6.987 8.85-6.987 20.961-10.713 32.14-14.906" fill="#ffffff" fill-rule="nonzero" stroke="none" stroke-width="1" stroke-linecap="butt" stroke-linejoin="miter" stroke-miterlimit="10" stroke-dasharray="" stroke-dashoffset="0" font-family="none" font-weight="none" font-size="none" text-anchor="none" style="mix-blend-mode: normal" data-fill-palette-color="tertiary"></path></g><g transform="matrix(1,0,0,1,64.00000000000001,125.05564387917329)"><svg viewBox="0 0 191.99999999999997 109.88871224165341" height="109.88871224165341" width="191.99999999999997"><g><svg viewBox="0 0 191.99999999999997 109.88871224165341" height="109.88871224165341" width="191.99999999999997"><g><svg viewBox="0 0 191.99999999999997 109.88871224165341" height="109.88871224165341" width="191.99999999999997"><g><svg viewBox="0 0 191.99999999999997 109.88871224165341" height="109.88871224165341" width="191.99999999999997"><g id="textblocktransform"><svg viewBox="0 0 191.99999999999997 109.88871224165341" height="109.88871224165341" width="191.99999999999997" id="textblock"><g><svg viewBox="0 0 191.99999999999997 109.88871224165341" height="109.88871224165341" width="191.99999999999997"><g transform="matrix(1,0,0,1,0,0)"><svg width="191.99999999999997" viewBox="2.2699999809265137 -42.189998626708984 76.7800064086914 43.94999694824219" height="109.88871224165341" data-palette-color="#374151"><path d="M31.37 0L31.37-14.75 33.13-18.07 33.13 0 31.37 0ZM34.89 0L34.89-21.48 36.65-24.8 36.65 0 34.89 0ZM38.4 0L38.4-28.13 40.16-31.47 40.16 0 38.4 0ZM39.7-40.43L26.61-15.58 25.61-17.41 37.72-40.43 39.7-40.43ZM35.72-40.43L24.58-19.41 23.56-21.26 33.72-40.43 35.72-40.43ZM12.82 0L12.82-17.87 14.58-14.55 14.58 0 12.82 0ZM9.3 0L9.3-24.56 11.06-21.24 11.06 0 9.3 0ZM5.79 0L5.79-31.25 7.54-27.91 7.54 0 5.79 0ZM4.25-40.43L20-10.55 18.02-10.55 4.03-37.08 4.03 0 2.27 0 2.27-40.43 4.25-40.43ZM8.25-40.43L23.97-10.55 21.97-10.55 6.25-40.43 8.25-40.43ZM41.92 0L41.92-37.08 27.93-10.55 25.93-10.55 10.23-40.43 12.21-40.43 26.95-12.4 41.67-40.43 43.68-40.43 43.68 0 41.92 0ZM64.65-24.61L64.65-24.61 61.69-24.61Q59.81-24.61 58.98-25.57 58.15-26.54 58.15-28.13L58.15-28.13Q58.15-31.64 63.4-31.64L63.4-31.64Q68.33-31.64 70.82-30.18L70.82-30.18 69.41-29.1Q67.7-29.88 63.4-29.88L63.4-29.88Q61.3-29.88 60.58-29.42 59.86-28.96 59.86-28.13 59.86-27.29 60.25-26.83 60.64-26.37 61.69-26.37L61.69-26.37 64.72-26.37Q68.02-26.37 70.66-25.24 73.31-24.12 75.02-22.18 76.73-20.24 77.63-17.71 78.54-15.19 78.54-12.3L78.54-12.3Q78.54-9.96 77.88-7.86 77.22-5.76 75.89-4 74.56-2.25 72.69-0.96 70.82 0.32 68.25 1.04 65.67 1.76 62.67 1.76L62.67 1.76Q57.96 1.76 53.84 0.33 49.73-1.1 46.99-3.66L46.99-3.66 48.41-4.71Q50.9-2.47 54.65-1.23 58.4 0 62.67 0L62.67 0Q66.01 0 68.71-0.96 71.41-1.93 73.15-3.61 74.9-5.3 75.84-7.52 76.78-9.74 76.78-12.3L76.78-12.3Q76.78-15.7 75.41-18.44 74.05-21.19 71.25-22.9 68.45-24.61 64.65-24.61ZM61.69-22.85L61.69-22.85 64.48-22.85Q69.43-22.85 72.23-19.82 75.02-16.8 75.02-12.3L75.02-12.3Q75.02-7.74 71.77-4.75 68.53-1.76 62.67-1.76L62.67-1.76Q58.76-1.76 55.37-2.83 51.98-3.91 49.73-5.86L49.73-5.86 51.1-6.96Q53.1-5.32 56.14-4.42 59.18-3.52 62.67-3.52L62.67-3.52Q67.82-3.52 70.54-5.98 73.26-8.45 73.26-12.3L73.26-12.3Q73.26-16.11 70.98-18.6 68.7-21.09 64.45-21.09L64.45-21.09 61.69-21.09Q58.13-21.09 56.35-23.05 54.56-25 54.56-28.13 54.56-31.25 56.77-33.2 58.98-35.16 63.4-35.16L63.4-35.16Q66.5-35.16 69.16-34.44 71.82-33.72 73.56-32.37L73.56-32.37 72.17-31.3Q69.11-33.4 63.4-33.4L63.4-33.4Q59.71-33.4 58.02-31.95 56.32-30.49 56.32-28.13L56.32-28.13Q56.32-25.73 57.58-24.29 58.84-22.85 61.69-22.85ZM61.69-19.34L61.69-19.34 64.38-19.34Q67.94-19.34 69.72-17.36 71.51-15.38 71.51-12.3L71.51-12.3Q71.51-9.18 69.3-7.23 67.09-5.27 62.67-5.27L62.67-5.27Q59.57-5.27 56.89-5.99 54.22-6.71 52.49-8.06L52.49-8.06 53.88-9.13Q56.93-7.03 62.67-7.03L62.67-7.03Q66.35-7.03 68.05-8.48 69.75-9.94 69.75-12.3 69.75-14.67 68.48-16.13 67.21-17.58 64.35-17.58L64.35-17.58 61.69-17.58Q56.69-17.58 53.87-20.57 51.05-23.56 51.05-28.13 51.05-32.69 54.29-35.68 57.54-38.67 63.4-38.67L63.4-38.67Q67.31-38.67 70.69-37.6 74.07-36.52 76.32-34.57L76.32-34.57 74.95-33.47Q72.95-35.11 69.92-36.01 66.89-36.91 63.4-36.91L63.4-36.91Q58.25-36.91 55.53-34.45 52.81-31.98 52.81-28.13L52.81-28.13Q52.81-24.29 55.1-21.81 57.39-19.34 61.69-19.34ZM61.69-15.82L61.69-15.82 64.38-15.82Q66.26-15.82 67.09-14.84 67.92-13.87 67.92-12.3L67.92-12.3Q67.92-8.79 62.67-8.79L62.67-8.79Q57.71-8.79 55.22-10.25L55.22-10.25 56.64-11.33Q58.35-10.55 62.67-10.55L62.67-10.55Q64.77-10.55 65.49-11.01 66.21-11.47 66.21-12.3L66.21-12.3Q66.21-13.11 65.81-13.59 65.4-14.06 64.33-14.06L64.33-14.06 61.69-14.06Q58.32-14.06 55.6-15.16 52.88-16.26 51.13-18.19 49.39-20.12 48.46-22.66 47.53-25.2 47.53-28.13L47.53-28.13Q47.53-30.47 48.19-32.57 48.85-34.67 50.18-36.43 51.51-38.18 53.38-39.47 55.25-40.75 57.82-41.47 60.4-42.19 63.4-42.19L63.4-42.19Q68.11-42.19 72.21-40.76 76.32-39.33 79.05-36.77L79.05-36.77 77.63-35.72Q75.14-37.96 71.41-39.2 67.67-40.43 63.4-40.43L63.4-40.43Q60.06-40.43 57.36-39.47 54.66-38.5 52.91-36.82 51.17-35.13 50.23-32.91 49.29-30.69 49.29-28.13L49.29-28.13Q49.29-24.68 50.68-21.92 52.07-19.17 54.93-17.49 57.79-15.82 61.69-15.82Z" opacity="1" transform="matrix(1,0,0,1,0,0)" fill="#ffffff" class="undefined-text-0" data-fill-palette-color="primary" id="text-0"></path></svg></g></svg></g></svg></g></svg></g></svg></g></svg></g></svg></g></svg></g><defs></defs></svg><rect width="320" height="360" fill="none" stroke="none" visibility="hidden"></rect></g></svg></g></svg>